<svg width="18.000000" height="18.000000" viewBox="0 0 18 18" fill="none" xmlns="http://www.w3.org/2000/svg" xmlns:xlink="http://www.w3.org/1999/xlink">
	<desc>
			Created with Pixso.
	</desc>
	<defs/>
	<path id="Vector" d="M5 13L3 13C2.46 13 1.96 12.78 1.58 12.41C1.21 12.03 1 11.53 1 11L1 3C1 2.46 1.21 1.96 1.58 1.58C1.96 1.21 2.46 1 3 1L11 1C11.53 1 12.03 1.21 12.41 1.58C12.78 1.96 13 2.46 13 3L13 5M15 17C15.53 17 16.03 16.78 16.41 16.41C16.78 16.03 17 15.53 17 15L17 7C17 6.46 16.78 5.96 16.41 5.58C16.03 5.21 15.53 5 15 5L7 5C6.46 5 5.96 5.21 5.58 5.58C5.21 5.96 5 6.46 5 7L5 15C5 15.53 5.21 16.03 5.58 16.41C5.96 16.78 6.46 17 7 17L15 17Z" stroke="#868686" stroke-opacity="1.000000" stroke-width="2.000000" stroke-linejoin="round" stroke-linecap="round"/>
</svg>
