<svg width="24.000000" height="24.000000" viewBox="0 0 24 24" fill="none" xmlns="http://www.w3.org/2000/svg" xmlns:xlink="http://www.w3.org/1999/xlink">
	<desc>
			Created with Pixso.
	</desc>
	<defs>
		<clipPath id="clip2_183">
			<rect id="54-menu-2" rx="0.000000" width="23.000000" height="23.000000" transform="translate(0.500000 0.500000)" fill="white" fill-opacity="0"/>
		</clipPath>
	</defs>
	<rect id="54-menu-2" rx="0.000000" width="23.000000" height="23.000000" transform="translate(0.500000 0.500000)" fill="#FFFFFF" fill-opacity="0"/>
	<g clip-path="url(#clip2_183)">
		<path id="Vector" d="M8 2.75C9.24 2.75 10.25 3.75 10.25 5L10.25 8C10.25 9.24 9.24 10.25 8 10.25L5 10.25C3.75 10.25 2.75 9.24 2.75 8L2.75 5C2.75 3.75 3.75 2.75 5 2.75L8 2.75Z" stroke="#1FA45B" stroke-opacity="1.000000" stroke-width="1.500000"/>
		<path id="Vector" d="M19 2.75C20.24 2.75 21.25 3.75 21.25 5L21.25 8C21.25 9.24 20.24 10.25 19 10.25L16 10.25C14.75 10.25 13.75 9.24 13.75 8L13.75 5C13.75 3.75 14.75 2.75 16 2.75L19 2.75Z" stroke="#1FA45B" stroke-opacity="1.000000" stroke-width="1.500000"/>
		<path id="Vector" d="M19 13.75C20.24 13.75 21.25 14.75 21.25 16L21.25 19C21.25 20.24 20.24 21.25 19 21.25L16 21.25C14.75 21.25 13.75 20.24 13.75 19L13.75 16C13.75 14.75 14.75 13.75 16 13.75L19 13.75Z" stroke="#1FA45B" stroke-opacity="1.000000" stroke-width="1.500000"/>
		<path id="Vector" d="M8 13.75C9.24 13.75 10.25 14.75 10.25 16L10.25 19C10.25 20.24 9.24 21.25 8 21.25L5 21.25C3.75 21.25 2.75 20.24 2.75 19L2.75 16C2.75 14.75 3.75 13.75 5 13.75L8 13.75Z" stroke="#1FA45B" stroke-opacity="1.000000" stroke-width="1.500000"/>
	</g>
</svg>
