<svg width="19.500000" height="19.500000" viewBox="0 0 19.5 19.5" fill="none" xmlns="http://www.w3.org/2000/svg" xmlns:xlink="http://www.w3.org/1999/xlink">
	<desc>
			Created with Pixso.
	</desc>
	<defs/>
	<path id="Vector" d="M2.75 8.75C2.21 8.75 1.71 8.96 1.33 9.33C0.96 9.71 0.75 10.21 0.75 10.75L0.75 16.75C0.75 17.28 0.96 17.78 1.33 18.16C1.71 18.53 2.21 18.75 2.75 18.75L16.75 18.75C17.28 18.75 17.78 18.53 18.16 18.16C18.53 17.78 18.75 17.28 18.75 16.75L18.75 10.75C18.75 10.21 18.53 9.71 18.16 9.33C17.78 8.96 17.28 8.75 16.75 8.75L2.75 8.75ZM2.75 8.75L16.75 8.75M16.75 8.75L16.75 6.75C16.75 6.21 16.53 5.71 16.16 5.33C15.78 4.96 15.28 4.75 14.75 4.75L4.75 4.75C4.21 4.75 3.71 4.96 3.33 5.33C2.96 5.71 2.75 6.21 2.75 6.75L2.75 8.75M14.75 4.75L16.75 8.75M4.75 4.75L2.75 8.75M4.75 4.75L4.75 2.75C4.75 2.21 4.96 1.71 5.33 1.33C5.71 0.96 6.21 0.75 6.75 0.75L12.75 0.75C13.28 0.75 13.78 0.96 14.16 1.33C14.53 1.71 14.75 2.21 14.75 2.75L14.75 4.75M4.75 4.75L14.75 4.75" stroke="#868686" stroke-opacity="1.000000" stroke-width="1.500000" stroke-linejoin="round"/>
</svg>
