<svg width="20.000183" height="20.001709" viewBox="0 0 20.0002 20.0017" fill="none" xmlns="http://www.w3.org/2000/svg" xmlns:xlink="http://www.w3.org/1999/xlink">
	<desc>
			Created with Pixso.
	</desc>
	<defs/>
	<path id="Vector" d="M6.99 10C6.99 9.51 6.88 9.06 6.68 8.65C6.38 8.05 5.88 7.56 5.27 7.28C4.65 6.99 3.96 6.92 3.31 7.08C2.65 7.23 2.06 7.6 1.64 8.13C1.22 8.66 1 9.32 1 10C1 10.67 1.22 11.33 1.64 11.86C2.06 12.39 2.65 12.76 3.31 12.92C3.96 13.07 4.65 13 5.27 12.71C5.88 12.43 6.38 11.94 6.68 11.34C6.88 10.93 6.99 10.48 6.99 10ZM6.68 8.65L6.68 11.34M6.68 11.34L13.31 14.65M6.68 8.65L13.31 5.34M14.03 6.26C14.33 6.52 14.67 6.72 15.05 6.84C15.42 6.97 15.81 7.02 16.21 6.99C16.6 6.96 16.98 6.86 17.34 6.68C17.69 6.5 18 6.26 18.26 5.96C18.52 5.66 18.72 5.32 18.84 4.94C18.96 4.57 19.01 4.18 18.99 3.78C18.96 3.39 18.85 3.01 18.68 2.65C18.32 1.94 17.7 1.4 16.94 1.15C16.19 0.9 15.36 0.96 14.65 1.31C13.94 1.67 13.4 2.29 13.15 3.05C12.9 3.8 12.95 4.63 13.31 5.34C13.49 5.69 13.73 6 14.03 6.26ZM13.15 16.94C13.4 17.7 13.94 18.32 14.65 18.68C15.36 19.04 16.19 19.09 16.94 18.84C17.7 18.59 18.32 18.05 18.68 17.34C19.03 16.63 19.09 15.8 18.84 15.05C18.59 14.29 18.05 13.67 17.34 13.31C16.98 13.14 16.6 13.03 16.21 13C15.81 12.97 15.42 13.02 15.05 13.15C14.29 13.4 13.67 13.94 13.31 14.65C12.95 15.37 12.9 16.19 13.15 16.94Z" stroke="#868686" stroke-opacity="1.000000" stroke-width="2.000000" stroke-linejoin="round"/>
</svg>
